<svg width="16" height="16" viewBox="0 0 16 16" fill="none" xmlns="http://www.w3.org/2000/svg">
<g clip-path="url(#clip0_698:886)">
<path d="M0 15.3663C0.4448 13.8399 0.888 12.3135 1.3328 10.7871C1.368 10.6655 1.4048 10.5439 1.4368 10.4223C1.488 10.2383 1.584 10.0895 1.7312 9.96628C1.8688 9.85268 1.9904 9.71668 2.1168 9.59028C4.2016 7.52468 6.2864 5.45909 8.3696 3.39189C8.4176 3.34389 8.4592 3.28949 8.4928 3.24789C8.776 3.53269 9.0416 3.79989 9.3376 4.09749C9.3056 4.11989 9.2432 4.15189 9.1952 4.19989C7.0352 6.35508 4.8768 8.51028 2.7216 10.6703C2.6448 10.7487 2.5808 10.8559 2.5504 10.9615C2.2912 11.8175 2.0448 12.6783 1.7888 13.5375C1.7568 13.6447 1.7728 13.7119 1.8544 13.7855C1.9872 13.9055 2.104 14.0431 2.2384 14.1615C2.2848 14.2015 2.3728 14.2319 2.4288 14.2175C3.2896 13.9711 4.1488 13.7199 5.0064 13.4607C5.08 13.4383 5.1488 13.3759 5.2064 13.3167C7.3968 11.1327 9.584 8.94548 11.7712 6.75988C11.8128 6.71828 11.848 6.67188 11.872 6.64468C12.1824 6.95508 12.4832 7.25588 12.8128 7.58548C12.7984 7.59508 12.7408 7.61908 12.7008 7.65908C10.544 9.79508 8.384 11.9263 6.2384 14.0735C5.9392 14.3743 5.6144 14.5599 5.2128 14.6735C3.7888 15.0767 2.3712 15.5023 0.9504 15.9199C0.856 15.9471 0.76 15.9727 0.6656 15.9999H0.5376C0.4688 15.9695 0.3984 15.9423 0.3296 15.9103C0.1376 15.8207 0.072 15.6383 0 15.4607V15.3663ZM4.3024 12.7151C4.2608 12.4495 4.216 12.2063 4.1872 11.9631C4.1728 11.8479 4.1264 11.8015 4.0144 11.7807C3.7408 11.7279 3.4704 11.6591 3.2176 11.6031C5.4864 9.32948 7.7552 7.05428 10.0096 4.79349C10.3696 5.15349 10.7456 5.52789 11.1088 5.88949C8.8624 8.14228 6.5952 10.4159 4.3024 12.7151ZM10.8368 1.0255C11.0416 0.825499 11.2464 0.612699 11.4656 0.4143C12.0944 -0.152099 12.9136 -0.139299 13.5264 0.4591C14.2032 1.1183 14.8704 1.7855 15.5296 2.46229C16.1536 3.10069 16.144 3.95509 15.5216 4.59189C15.3344 4.78389 15.1408 4.97109 14.9616 5.14709C13.592 3.77909 12.224 2.41269 10.8368 1.0255ZM9.168 2.53589C9.4784 2.2447 9.7968 1.9455 10.0992 1.6607C11.5328 3.09429 12.9584 4.52149 14.3968 5.95989C14.0976 6.23989 13.776 6.54228 13.4656 6.83348L9.168 2.53589Z" fill="#A0A4A8"/>
</g>
<defs>
<clipPath id="clip0_698:886">
<rect width="16" height="16" fill="white"/>
</clipPath>
</defs>
</svg>
