<svg width="0" height="0" class="hidden">
  <symbol fill="none" xmlns="http://www.w3.org/2000/svg" viewBox="0 0 143 39" id="logo">
    <path
      d="M22.9516 11.708C22.7772 11.2254 22.7469 10.6382 22.8369 10.1316C23.0711 8.81165 23.3962 7.50564 23.709 6.20056C23.9109 5.35767 23.69 4.77043 22.8275 4.41938C21.6634 3.94607 21.1828 3.67005 20.9364 3.53204C20.9354 3.53111 20.9335 3.53018 20.9326 3.53018C20.8359 3.49128 20.7383 3.45423 20.6406 3.42089C20.2681 3.29399 19.797 3.44497 19.3704 3.4709C19.4093 3.62929 19.4463 3.78768 19.4842 3.94607V3.947C19.5581 4.25266 19.6321 4.55925 19.7164 4.86213C19.7676 4.91122 19.8207 4.94456 19.8633 4.96679C19.887 4.97791 19.9098 4.98903 19.9306 5.00107C19.9373 5.00477 19.943 5.00755 19.9477 5.01033C20.5762 5.39657 21.7137 5.75596 21.7355 6.17277C21.799 7.33706 21.4701 8.54582 21.1335 9.69066C21.053 9.96668 20.3259 10.2483 19.924 10.214C17.9893 10.0519 16.0613 9.5721 14.137 9.60174C11.4033 9.64435 8.66667 9.9676 5.94807 10.3038C4.74044 10.453 4.08828 10.2649 3.89206 8.9793C3.73945 7.9808 3.36218 7.01473 3.06359 5.95973C6.07509 4.73338 9.10839 3.46813 12.1749 2.28438C12.19 2.27882 12.2043 2.27327 12.2194 2.26864C13.0498 1.97131 13.6214 2.43814 13.6479 2.46037C13.6489 2.4613 13.6489 2.4613 13.6489 2.4613C14.5693 2.6873 15.2783 3.09114 15.8499 3.45145C16.6244 3.93959 17.1495 4.34806 17.6111 4.13317C17.7618 4.06278 17.9609 3.90068 18.0917 3.46813C17.8614 3.03094 17.7457 2.38442 17.3808 2.19639C16.0859 1.52764 14.721 0.979299 13.3503 0.467084C12.9455 0.316106 12.373 0.292024 11.9815 0.453191C8.9245 1.70826 5.89594 3.03094 2.85126 4.31472C1.63131 4.82971 1.3147 5.70409 1.65026 6.89987C1.78771 7.38986 1.87113 7.89466 1.98582 8.39113C2.39911 10.1973 3.05317 11.9099 1.84079 13.7958C1.18484 14.8174 1.25688 16.2855 1 17.5517V22.8489C1.31186 24.38 1.58296 25.9213 1.94506 27.4413C2.52708 29.8801 4.52147 31.4704 7.03343 31.3936C8.82497 31.3389 10.6061 31.0231 12.3986 30.9425C13.2792 30.9036 14.1702 31.175 15.0613 31.2343C16.431 31.325 17.8064 31.4204 19.1771 31.3936C21.5288 31.3482 22.6701 29.7106 23.1896 27.8368C24.6806 22.4645 24.8882 17.0627 22.9516 11.708ZM5.913 11.9387C8.07328 11.6969 10.2222 11.231 12.3844 11.1727C14.1949 11.1245 16.0196 11.5469 17.8377 11.7506C18.3268 11.8062 18.8169 11.8664 19.3031 11.9433C21.4606 12.2842 21.4919 12.2851 21.234 14.6174H3.92714C3.67499 12.4722 3.94609 12.1582 5.913 11.9387ZM17.9097 16.6709C18.9818 16.682 19.4842 17.0904 19.4226 18.2899C19.306 20.5648 19.0216 22.7146 17.1448 24.3374C14.8565 26.3159 11.5549 26.5623 8.98137 24.9284C6.42677 23.3065 5.14235 20.1146 6.10353 17.4471C6.24193 17.0636 7.02869 16.7088 7.53392 16.681C9.28186 16.5884 11.0393 16.6459 12.792 16.6459V16.6662C14.4982 16.6662 16.2044 16.6523 17.9097 16.6709ZM22.3251 17.5851C22.1241 20.7639 22.0682 23.9688 21.5819 27.1087C21.2331 29.3651 19.8615 30.1774 17.5524 29.8245C14.2356 29.3178 10.9616 29.3354 7.64483 29.7986C5.09306 30.1542 3.57262 28.9631 3.27024 26.1871C2.96975 23.4315 3.03516 20.638 2.9489 17.8611C2.94321 17.6795 2.95553 17.4535 3.05791 17.3229C3.25791 17.0673 3.52901 16.8654 3.76978 16.6412C3.90723 16.933 4.13757 17.2173 4.16411 17.5184C4.29682 19.0263 4.13378 20.6009 4.52242 22.0357C5.33762 25.0432 7.51496 26.9994 10.5492 27.7432C13.9863 28.5852 17.0386 27.7488 19.2993 24.8913C20.8406 22.9443 21.5146 20.7204 21.4663 18.2714C21.4549 17.6971 21.4644 17.1219 21.4644 16.5467C21.6445 16.5264 21.8246 16.5051 22.0037 16.4847C22.1175 16.8515 22.3478 17.2257 22.3251 17.5851Z"
      fill="#365278"></path>
    <path
      d="M22.0047 16.4845C22.1175 16.8513 22.3487 17.2264 22.326 17.5849C22.125 20.7638 22.0691 23.9686 21.5828 27.1086C21.234 29.3658 19.8614 30.1772 17.5523 29.8243C14.2366 29.3177 10.9625 29.3362 7.64575 29.7984C5.09399 30.1541 3.57354 28.9638 3.27116 26.1879C2.97068 23.4323 3.03608 20.6387 2.94982 17.8609C2.94413 17.6794 2.95551 17.4534 3.05883 17.3228C3.25884 17.068 3.52994 16.8652 3.77071 16.641C3.90721 16.9328 4.1385 17.2172 4.16504 17.5191C4.2968 19.027 4.13376 20.6017 4.52335 22.0364C5.33855 25.043 7.51589 27.0002 10.5501 27.744C13.9873 28.5859 17.0395 27.7495 19.3003 24.892C20.8406 22.9451 21.5155 20.7212 21.4672 18.2722C21.4558 17.6979 21.4653 17.1227 21.4653 16.5475C21.6444 16.5262 21.8245 16.5049 22.0047 16.4845Z"
      fill="#D3E6FA"></path>
    <path
      d="M3.92702 14.617C3.67582 12.4718 3.94598 12.1578 5.91194 11.9383C8.07222 11.6966 10.2211 11.2307 12.3833 11.1732C14.1947 11.1241 16.0185 11.5474 17.8366 11.7512C18.3257 11.8059 18.8158 11.8661 19.3021 11.9439C21.4595 12.2857 21.4908 12.2857 21.233 14.618H3.92702V14.617Z"
      fill="#D3E6FA"></path>
    <path
      d="M13.939 5.55398H14.8205C15.0139 5.55398 15.1703 5.70681 15.1703 5.89576V6.52098C15.1703 6.70993 15.0139 6.86276 14.8205 6.86276H13.939C13.7456 6.86276 13.5892 7.01559 13.5892 7.20455V8.29196C13.5892 8.48092 13.4328 8.63375 13.2394 8.63375H12.4783C12.2849 8.63375 12.1285 8.48092 12.1285 8.29196V7.20547C12.1285 7.01652 11.9721 6.86369 11.7787 6.86369H10.8924C10.699 6.86369 10.5426 6.71086 10.5426 6.5219V5.89669C10.5426 5.70773 10.699 5.5549 10.8924 5.5549H11.7787C11.9721 5.5549 12.1285 5.40207 12.1285 5.21312V4.17479C12.1285 3.98584 12.2849 3.83301 12.4783 3.83301H13.2394C13.4328 3.83301 13.5892 3.98584 13.5892 4.17479V5.21312C13.5892 5.40114 13.7456 5.55398 13.939 5.55398Z"
      fill="#365278"></path>
    <path
      d="M16.8925 4.13603C17.3779 4.37273 17.9633 4.17111 18.2 3.6857C18.4367 3.20029 18.2351 2.6149 17.7497 2.3782L16.8925 4.13603ZM12.5009 1.20175L12.106 0.307213L12.5009 1.20175ZM13.1306 1.21368L12.702 2.0926L13.1306 1.21368ZM2.91973 5.43214L2.52476 4.53761L2.91973 5.43214ZM4.62005 10.7753L3.44511 6.06035L1.54746 6.53323L2.72239 11.2482L4.62005 10.7753ZM3.31469 6.32667L12.8959 2.09628L12.106 0.307213L2.52476 4.53761L3.31469 6.32667ZM12.702 2.0926L16.8925 4.13603L17.7497 2.3782L13.5591 0.334766L12.702 2.0926ZM12.8959 2.09628C12.8339 2.12367 12.7629 2.12232 12.702 2.0926L13.5591 0.334766C13.1024 0.112063 12.5708 0.101982 12.106 0.307213L12.8959 2.09628ZM3.44511 6.06035C3.4722 6.16903 3.41715 6.28143 3.31469 6.32667L2.52476 4.53761C1.757 4.8766 1.34452 5.71887 1.54746 6.53323L3.44511 6.06035Z"
      fill="#34517C"></path>
    <path d="M19.6908 3.91101L22.8189 5.59274L21.7762 11.1051" stroke="#34517C" stroke-width="1.76944"
      stroke-linecap="round" stroke-linejoin="round"></path>
    <path
      d="M8.58335 20.8824H9.35891L9.61743 20.3756L10.0483 21.5583L11.3409 18.686L11.7718 23.0789H12.2888L12.892 21.0514H13.4952L13.7537 20.2911L13.9261 20.629L14.2708 19.7842L14.9602 20.8824H17.1145"
      stroke="#30517A" stroke-width="0.507972" stroke-linecap="round" stroke-linejoin="round"></path>
    <path d="M2.48607 15.3563C0.132863 15.3563 1.50742 28.8101 2.88182 26.8481" stroke="#34517C"
      stroke-width="0.931282"></path>
    <path
      d="M46.9061 13.2212C46.0741 12.3252 45.2634 11.7279 44.4741 11.4292C43.7061 11.1305 42.9274 10.9812 42.1381 10.9812C40.9648 10.9812 39.8981 11.1945 38.9381 11.6212C37.9994 12.0265 37.1888 12.6025 36.5061 13.3492C35.8234 14.0745 35.2901 14.9279 34.9061 15.9092C34.5434 16.8905 34.3621 17.9465 34.3621 19.0772C34.3621 20.2932 34.5434 21.4132 34.9061 22.4372C35.2901 23.4612 35.8234 24.3465 36.5061 25.0932C37.1888 25.8399 37.9994 26.4265 38.9381 26.8532C39.8981 27.2799 40.9648 27.4932 42.1381 27.4932C43.0554 27.4932 43.9408 27.2799 44.7941 26.8532C45.6688 26.4052 46.4794 25.7012 47.2261 24.7412L50.5541 27.1092C49.5301 28.5172 48.2821 29.5412 46.8101 30.1812C45.3381 30.8212 43.7701 31.1412 42.1061 31.1412C40.3568 31.1412 38.7461 30.8639 37.2741 30.3092C35.8234 29.7332 34.5648 28.9332 33.4981 27.9092C32.4528 26.8639 31.6314 25.6159 31.0341 24.1652C30.4368 22.7145 30.1381 21.1039 30.1381 19.3332C30.1381 17.5199 30.4368 15.8772 31.0341 14.4052C31.6314 12.9119 32.4528 11.6425 33.4981 10.5972C34.5648 9.55185 35.8234 8.75185 37.2741 8.19718C38.7461 7.62118 40.3568 7.33319 42.1061 7.33319C43.6421 7.33319 45.0608 7.61052 46.3621 8.16518C47.6848 8.69852 48.9114 9.61585 50.0421 10.9172L46.9061 13.2212ZM52.9723 6.37318H56.8123V30.5652H52.9723V6.37318ZM70.8208 28.4532H70.7248C70.1702 29.3279 69.4662 29.9679 68.6128 30.3732C67.7595 30.7572 66.8208 30.9492 65.7968 30.9492C65.0928 30.9492 64.3995 30.8532 63.7168 30.6612C63.0555 30.4692 62.4582 30.1812 61.9248 29.7972C61.4128 29.4132 60.9968 28.9332 60.6768 28.3572C60.3568 27.7812 60.1968 27.1092 60.1968 26.3412C60.1968 25.5092 60.3462 24.8052 60.6448 24.2292C60.9435 23.6319 61.3382 23.1412 61.8288 22.7572C62.3408 22.3519 62.9275 22.0319 63.5888 21.7972C64.2502 21.5625 64.9328 21.3919 65.6368 21.2852C66.3622 21.1572 67.0875 21.0825 67.8128 21.0612C68.5382 21.0185 69.2208 20.9972 69.8608 20.9972H70.8208V20.5812C70.8208 19.6212 70.4902 18.9065 69.8288 18.4372C69.1675 17.9465 68.3248 17.7012 67.3008 17.7012C66.4902 17.7012 65.7328 17.8505 65.0288 18.1492C64.3248 18.4265 63.7168 18.8105 63.2048 19.3012L61.1888 17.2852C62.0422 16.4105 63.0342 15.7812 64.1648 15.3972C65.3168 15.0132 66.5008 14.8212 67.7168 14.8212C68.8048 14.8212 69.7222 14.9492 70.4688 15.2052C71.2155 15.4399 71.8342 15.7492 72.3248 16.1332C72.8155 16.5172 73.1888 16.9652 73.4448 17.4772C73.7222 17.9679 73.9142 18.4692 74.0208 18.9812C74.1488 19.4932 74.2235 19.9945 74.2448 20.4852C74.2662 20.9545 74.2768 21.3705 74.2768 21.7332V30.5652H70.8208V28.4532ZM70.5968 23.6852H69.7968C69.2635 23.6852 68.6662 23.7065 68.0048 23.7492C67.3435 23.7919 66.7142 23.8985 66.1168 24.0692C65.5408 24.2185 65.0502 24.4532 64.6448 24.7732C64.2395 25.0719 64.0368 25.4985 64.0368 26.0532C64.0368 26.4159 64.1115 26.7252 64.2608 26.9812C64.4315 27.2159 64.6448 27.4185 64.9008 27.5892C65.1568 27.7599 65.4448 27.8879 65.7648 27.9732C66.0848 28.0372 66.4048 28.0692 66.7248 28.0692C68.0475 28.0692 69.0182 27.7599 69.6368 27.1412C70.2768 26.5012 70.5968 25.6372 70.5968 24.5492V23.6852ZM79.7843 18.4692H76.6163V15.2052H79.7843V13.0292C79.7843 11.9625 79.859 11.0025 80.0083 10.1492C80.1577 9.27452 80.435 8.52785 80.8403 7.90919C81.267 7.29052 81.8537 6.82118 82.6003 6.50118C83.347 6.15985 84.3177 5.98919 85.5123 5.98919C86.387 5.98919 87.1977 6.06385 87.9443 6.21318L87.6883 9.47718C87.411 9.41318 87.1443 9.35985 86.8883 9.31718C86.6323 9.27452 86.3657 9.25319 86.0883 9.25319C85.555 9.25319 85.1283 9.33852 84.8083 9.50918C84.4883 9.67985 84.2323 9.91452 84.0403 10.2132C83.8697 10.4905 83.7523 10.8212 83.6883 11.2052C83.6457 11.5892 83.6243 11.9945 83.6243 12.4212V15.2052H87.1763V18.4692H83.6243V30.5652H79.7843V18.4692ZM89.6723 15.2052H93.5123V30.5652H89.6723V15.2052ZM89.1603 9.98919C89.1603 9.37052 89.3843 8.83718 89.8323 8.38918C90.3017 7.91985 90.8883 7.68518 91.5923 7.68518C92.2963 7.68518 92.883 7.90918 93.3523 8.35719C93.843 8.78385 94.0883 9.32785 94.0883 9.98919C94.0883 10.6505 93.843 11.2052 93.3523 11.6532C92.883 12.0799 92.2963 12.2932 91.5923 12.2932C90.8883 12.2932 90.3017 12.0692 89.8323 11.6212C89.3843 11.1519 89.1603 10.6079 89.1603 9.98919ZM95.2971 15.2052H99.5211L103.809 25.8612H103.873L107.713 15.2052H111.713L104.449 33.8612C104.172 34.5865 103.862 35.2159 103.521 35.7492C103.201 36.3039 102.817 36.7625 102.369 37.1252C101.921 37.5092 101.388 37.7865 100.769 37.9572C100.172 38.1492 99.4464 38.2452 98.5931 38.2452C97.5904 38.2452 96.6091 38.1172 95.6491 37.8612L96.1291 34.4052C96.4278 34.5119 96.7371 34.5972 97.0571 34.6612C97.3984 34.7465 97.7398 34.7892 98.0811 34.7892C98.5504 34.7892 98.9451 34.7465 99.2651 34.6612C99.5851 34.5759 99.8518 34.4372 100.065 34.2452C100.3 34.0745 100.492 33.8399 100.641 33.5412C100.79 33.2639 100.95 32.9225 101.121 32.5172L101.857 30.6932L95.2971 15.2052ZM123.571 28.4532H123.475C122.92 29.3279 122.216 29.9679 121.363 30.3732C120.51 30.7572 119.571 30.9492 118.547 30.9492C117.843 30.9492 117.15 30.8532 116.467 30.6612C115.806 30.4692 115.208 30.1812 114.675 29.7972C114.163 29.4132 113.747 28.9332 113.427 28.3572C113.107 27.7812 112.947 27.1092 112.947 26.3412C112.947 25.5092 113.096 24.8052 113.395 24.2292C113.694 23.6319 114.088 23.1412 114.579 22.7572C115.091 22.3519 115.678 22.0319 116.339 21.7972C117 21.5625 117.683 21.3919 118.387 21.2852C119.112 21.1572 119.838 21.0825 120.563 21.0612C121.288 21.0185 121.971 20.9972 122.611 20.9972H123.571V20.5812C123.571 19.6212 123.24 18.9065 122.579 18.4372C121.918 17.9465 121.075 17.7012 120.051 17.7012C119.24 17.7012 118.483 17.8505 117.779 18.1492C117.075 18.4265 116.467 18.8105 115.955 19.3012L113.939 17.2852C114.792 16.4105 115.784 15.7812 116.915 15.3972C118.067 15.0132 119.251 14.8212 120.467 14.8212C121.555 14.8212 122.472 14.9492 123.219 15.2052C123.966 15.4399 124.584 15.7492 125.075 16.1332C125.566 16.5172 125.939 16.9652 126.195 17.4772C126.472 17.9679 126.664 18.4692 126.771 18.9812C126.899 19.4932 126.974 19.9945 126.995 20.4852C127.016 20.9545 127.027 21.3705 127.027 21.7332V30.5652H123.571V28.4532ZM123.347 23.6852H122.547C122.014 23.6852 121.416 23.7065 120.755 23.7492C120.094 23.7919 119.464 23.8985 118.867 24.0692C118.291 24.2185 117.8 24.4532 117.395 24.7732C116.99 25.0719 116.787 25.4985 116.787 26.0532C116.787 26.4159 116.862 26.7252 117.011 26.9812C117.182 27.2159 117.395 27.4185 117.651 27.5892C117.907 27.7599 118.195 27.8879 118.515 27.9732C118.835 28.0372 119.155 28.0692 119.475 28.0692C120.798 28.0692 121.768 27.7599 122.387 27.1412C123.027 26.5012 123.347 25.6372 123.347 24.5492V23.6852Z"
      fill="#31517A"></path>
  </symbol>
  <symbol fill="none" xmlns="http://www.w3.org/2000/svg" viewBox="0 0 24 24" id="noti">
    <path
      d="M20.2223 18.3815C20.1479 18.2135 20.1311 17.9687 20.1935 17.7959C20.6759 16.4279 21.1703 15.0671 21.6839 13.7087C22.2311 12.2663 22.6559 10.8143 22.4423 9.2375C22.1999 7.4471 21.4655 5.8967 20.1431 4.6727C19.4975 4.0775 18.7415 3.6095 17.9927 3.0527C18.0503 2.8943 18.1439 2.6471 18.2351 2.3999C18.3839 1.9919 18.2687 1.6727 17.9255 1.5455C17.5727 1.4159 17.2775 1.5623 17.1119 1.9583C17.0039 2.2127 16.9079 2.4695 16.8023 2.7335C15.8039 2.4887 14.8175 2.3903 13.8167 2.5343C10.8335 2.9615 8.6807 4.5263 7.5167 7.3175C6.8039 9.0335 6.2159 10.8023 5.5823 12.5495C5.5055 12.7655 5.3831 12.8927 5.1743 12.9863C4.1135 13.4615 3.0599 13.9511 1.9991 14.4335C1.7159 14.5607 1.5047 14.7407 1.5119 15.0767C1.5191 15.4247 1.7639 15.5639 2.0519 15.6671C4.0319 16.3775 6.0071 17.0951 7.9919 17.7911C8.2895 17.8967 8.3927 18.0143 8.3759 18.3431C8.2751 20.5463 10.3415 22.1879 12.4799 21.6287C13.3463 21.4031 14.0063 20.8967 14.5031 20.1431C14.6063 20.1791 14.6999 20.2127 14.7935 20.2439C16.8047 20.9639 18.8159 21.6839 20.8271 22.4087C21.1295 22.5167 21.4079 22.5623 21.6575 22.3055C21.9167 22.0367 21.8087 21.7607 21.6743 21.4775C21.1799 20.4527 20.6879 19.4231 20.2223 18.3815ZM11.1191 20.4599C10.1615 20.1839 9.5279 19.3247 9.5951 18.3455C10.8479 18.7919 12.0743 19.2311 13.3055 19.6703C12.9551 20.3423 11.9495 20.6999 11.1191 20.4599Z"
      fill="#CACCCF"></path>
  </symbol>
  <symbol fill="none" xmlns="http://www.w3.org/2000/svg" viewBox="0 0 40 40" id="patient_stat">
    <g clip-path="url(#clip0_665:600)">
      <path
        d="M21.7759 16.7638V17.4878C21.7759 21.7718 21.7719 26.0598 21.7879 30.3478C21.7879 30.7638 21.6679 30.8598 21.2719 30.8518C19.9999 30.8278 18.7319 30.8398 17.4599 30.8478C17.3119 30.8478 17.0959 30.7638 17.0799 31.0438C17.0639 31.3478 17.2959 31.2838 17.4639 31.2838L21.3679 31.2878C21.4959 31.2878 21.7039 31.2238 21.7319 31.3758C21.7719 31.5878 21.5359 31.5558 21.4039 31.5918L17.4719 32.6638C17.3839 32.6878 17.2919 32.6998 17.2079 32.7358C17.0399 32.8038 17.0599 32.9558 17.0879 33.0878C17.1199 33.2638 17.2719 33.1918 17.3439 33.1558C18.0639 32.7918 18.6999 33.0998 19.3519 33.3678C20.0559 33.6598 20.7679 33.9358 21.4839 34.1998C21.7079 34.2838 21.8079 34.4038 21.7719 34.6398C21.7319 34.9158 21.5159 34.8038 21.3759 34.8078C20.0759 34.8158 18.7759 34.8118 17.4719 34.8158C17.3119 34.8158 17.0839 34.7278 17.0719 35.0398C17.0599 35.3558 17.2919 35.2718 17.4559 35.2718C17.9719 35.2798 18.4879 35.2758 19.0359 35.3598C18.4759 35.6838 17.9239 36.0158 17.3559 36.3238C17.0879 36.4678 17.0039 36.6398 17.1399 36.9718C17.8079 36.5918 18.4999 36.2598 19.1159 35.8238C19.8399 35.3118 20.6159 35.2078 21.4559 35.2638C21.6879 35.2798 21.7679 35.3318 21.7799 35.5758C21.8279 36.6638 21.8359 36.6718 20.7879 36.8758C19.7079 37.0838 18.6279 37.2758 17.5439 37.4758C17.2959 37.5238 17.0719 37.5358 17.0239 37.9038C16.8639 39.1718 15.7999 40.0598 14.5959 39.9878C13.2839 39.9038 12.3359 38.9118 12.3319 37.5678C12.3199 34.9798 12.3319 32.3918 12.3319 29.8078C12.3319 29.1478 12.3279 28.4918 12.3359 27.8318C12.3399 27.6278 12.2879 27.5558 12.0679 27.5078C10.6079 27.1798 9.97192 26.3398 9.97192 24.8358C9.97592 21.2678 9.97192 17.7038 9.97192 14.1358C9.97192 13.7518 9.97192 13.3678 10.0759 12.9958C10.3599 11.9878 11.2559 11.2998 12.3199 11.2878C13.6799 11.2758 15.0439 11.2958 16.4079 11.2718C16.7719 11.2678 16.8279 11.3958 16.8239 11.7198C16.8119 15.9758 16.8159 20.2318 16.8199 24.4878C16.8199 24.6238 16.8199 24.7638 16.8239 24.8998C16.8279 25.0398 16.8999 25.1398 17.0439 25.1398C17.1839 25.1398 17.2639 25.0398 17.2759 24.9038C17.2879 24.7678 17.2839 24.6278 17.2839 24.4918C17.2839 20.2518 17.2919 16.0118 17.2719 11.7718C17.2719 11.3518 17.3919 11.2718 17.7799 11.2798C19.0799 11.3038 20.3799 11.2958 21.6839 11.2838C22.3119 11.2798 22.8479 11.4918 23.3239 11.8838C24.7439 13.0478 26.1599 14.2158 27.5919 15.3678C28.2599 15.9038 28.5959 16.5838 28.5759 17.4358C28.5759 17.5438 28.5719 17.6518 28.5719 17.7558C28.5759 18.0758 28.4719 18.4598 28.6119 18.7038C28.7759 18.9878 29.1959 18.7798 29.4999 18.8198C29.7919 18.8558 29.9679 18.9918 29.9679 19.2798C29.9719 20.9318 30.0559 22.5878 29.9279 24.2358C29.8679 25.0358 29.4319 25.7398 28.9759 26.3958C28.3839 27.2518 27.7719 28.0918 27.1559 28.9318C26.8279 29.3798 26.6839 29.8518 26.6879 30.4238C26.7119 33.3318 26.6959 36.2398 26.6959 39.1478C26.6959 39.2838 26.7039 39.4238 26.6799 39.5598C26.6319 39.8398 26.4559 40.0038 26.1719 39.9798C25.9119 39.9598 25.7519 39.7918 25.7399 39.5318C25.7239 39.2558 25.7319 38.9798 25.7319 38.7038C25.7319 35.9478 25.7199 33.1918 25.7479 30.4358C25.7519 29.8638 25.6039 29.3918 25.2759 28.9438C24.6719 28.1158 24.0639 27.2918 23.4839 26.4438C23.0159 25.7598 22.6159 25.0398 22.4839 24.1998C22.4559 24.0198 22.4319 23.8358 22.4279 23.6518C22.4239 22.2758 22.4239 20.8958 22.4279 19.5198C22.4279 18.9478 22.5639 18.8158 23.1239 18.8118C23.2159 18.8118 23.3119 18.8238 23.3999 18.8078C23.5479 18.7758 23.7599 18.9198 23.8319 18.6798C23.8879 18.4838 23.7919 18.3358 23.6279 18.2118C23.0479 17.7678 22.4639 17.2998 21.7759 16.7638ZM26.2239 28.6158C26.9279 27.5878 27.6999 26.6798 28.3239 25.6638C28.6679 25.0998 29.0119 24.5158 29.0319 23.8478C29.0719 22.5798 29.0439 21.3078 29.0479 20.0398C29.0479 19.8558 29.0039 19.7558 28.7919 19.7638C28.5879 19.7678 28.5799 19.8918 28.5799 20.0398V20.7758C28.5799 21.5718 28.5959 22.3678 28.5759 23.1598C28.5399 24.3958 27.4999 25.3998 26.2559 25.4318C25.0599 25.4598 23.9719 24.5278 23.8999 23.3198C23.8359 22.2678 23.8719 21.2118 23.8599 20.1558C23.8599 19.9798 23.9119 19.7598 23.6119 19.7758C23.3319 19.7918 23.4239 20.0118 23.4239 20.1558C23.4159 21.3478 23.4239 22.5438 23.4199 23.7318C23.4199 24.1238 23.5239 24.4878 23.6839 24.8358C24.3239 26.2238 25.3599 27.3358 26.2239 28.6158ZM17.0599 -0.000153653C19.6719 0.0158463 21.7959 2.15185 21.7719 4.74785C21.7519 7.32785 19.6159 9.44385 17.0439 9.43985C14.4119 9.43585 12.3159 7.27985 12.3359 4.59585C12.3559 2.09185 14.5239 -0.0161537 17.0599 -0.000153653ZM18.9159 39.9038C19.4919 39.0838 20.0399 38.2638 20.6399 37.4838C20.8759 37.1758 21.3079 37.2518 21.6599 37.2078C21.7799 37.1918 21.7599 37.3278 21.7719 37.4158C21.9599 38.9438 20.4399 40.2958 18.9159 39.9038ZM20.0639 37.4798C19.5199 38.2598 19.0359 38.9398 18.5599 39.6278C18.4519 39.7838 18.3519 39.7558 18.2159 39.6758C17.6759 39.3598 17.3399 38.8918 17.1359 38.3078C17.0519 38.0758 17.1679 38.0078 17.3599 37.9718C18.2279 37.8158 19.0919 37.6558 20.0639 37.4798ZM18.9519 32.7278C19.8879 32.4758 20.7079 32.2598 21.5279 32.0278C21.7239 31.9718 21.7759 32.0398 21.7719 32.2198C21.7679 32.6758 21.7719 33.1358 21.7719 33.5918C21.7719 33.7518 21.7199 33.8158 21.5519 33.7518C20.7279 33.4238 19.8959 33.0958 18.9519 32.7278Z"
        fill="#0A459F"></path>
    </g>
    <defs>
      <clipPath id="clip0_665:600">
        <rect width="40" height="40" fill="white"></rect>
      </clipPath>
    </defs>
  </symbol>
  <symbol xmlns="http://www.w3.org/2000/svg" viewBox="0 0 14 14" id="search">
    <path
      d="M11.2028 9.85174C11.1006 9.74954 11.0866 9.57314 11.165 9.45134C11.781 8.50354 12.1422 7.37514 12.1422 6.16274C12.1422 2.81394 9.4178 0.0909424 6.0718 0.0909424C2.723 0.0909424 0 2.81394 0 6.16274C0 9.51014 2.723 12.2331 6.0718 12.2331C7.3752 12.2331 8.582 11.8145 9.5732 11.1117C9.6894 11.0277 9.8644 11.0389 9.9666 11.1397L12.1366 13.3097C12.1506 13.3237 12.166 13.3377 12.1814 13.3489C12.2066 13.3699 12.3116 13.4679 12.4124 13.5701L12.67 13.8263C12.7722 13.9271 12.9374 13.9271 13.0382 13.8263L13.923 12.9415C14.0252 12.8393 14.0252 12.6741 13.9244 12.5719L11.2028 9.85174ZM9.744 8.99074C9.5438 9.25114 9.3184 9.48914 9.0692 9.70054C8.26 10.3879 7.2142 10.8051 6.0718 10.8051C3.5112 10.8051 1.428 8.72194 1.428 6.16274C1.428 3.60354 3.5112 1.51894 6.0718 1.51894C8.631 1.51894 10.7142 3.60214 10.7142 6.16274C10.7142 7.22674 10.3488 8.20674 9.744 8.99074Z">
    </path>
  </symbol>
  <symbol fill="none" xmlns="http://www.w3.org/2000/svg" viewBox="0 0 40 40" id="app_stat">
    <path
      d="M36.492 9.70796H30.524C30.14 9.70796 29.824 9.39596 29.824 9.00796V3.16396C29.824 2.77596 29.508 2.45996 29.12 2.45996H10.876C10.488 2.45996 10.176 2.77596 10.176 3.16396V9.00796C10.176 9.39596 9.86 9.70796 9.472 9.70796H3.508C1.572 9.70796 0 11.284 0 13.22V33.104C0 35.04 1.568 36.612 3.508 36.612H5.2V36.792C5.2 37.196 5.824 37.528 6.6 37.528H12.272C13.048 37.528 13.672 37.196 13.672 36.792V36.612H26.888V36.792C26.888 37.196 27.52 37.528 28.292 37.528H33.964C34.736 37.528 35.368 37.196 35.368 36.792V36.612H36.492C38.428 36.612 40 35.044 40 33.104V13.216C40 11.284 38.428 9.70796 36.492 9.70796ZM16.14 6.55596C16.14 6.16796 16.456 5.85196 16.84 5.85196H23.156C23.548 5.85196 23.86 6.16796 23.86 6.55596V9.00796C23.86 9.39596 23.548 9.70796 23.156 9.70796H21.688V9.68796C21.688 9.30396 21.372 8.98796 20.988 8.98796H18.996C18.608 8.98796 18.296 9.30396 18.296 9.68796V9.70796H16.84C16.456 9.70796 16.14 9.39596 16.14 9.00796V6.55596ZM25.348 24.784C25.348 24.972 25.196 25.124 25.004 25.124H22.16C21.968 25.124 21.816 25.276 21.816 25.464V28.316C21.816 28.504 21.664 28.656 21.476 28.656H19.092C18.9 28.656 18.748 28.504 18.748 28.316V25.464C18.748 25.276 18.596 25.124 18.408 25.124H15.556C15.368 25.124 15.22 24.972 15.22 24.784V22.396C15.22 22.212 15.372 22.056 15.556 22.056H18.408C18.596 22.056 18.748 21.908 18.748 21.716V18.868C18.748 18.68 18.9 18.528 19.092 18.528H21.476C21.664 18.528 21.816 18.68 21.816 18.868V21.716C21.816 21.908 21.968 22.056 22.16 22.056H25.004C25.196 22.056 25.348 22.212 25.348 22.396V24.784Z"
      fill="#0A459F"></path>
  </symbol>
  <symbol fill="none" xmlns="http://www.w3.org/2000/svg" viewBox="0 0 40 40" id="earning_stat">
    <path
      d="M3.75178 15.0282H36.2478C36.2478 15.0282 37.1558 14.2842 36.2478 13.3362L20.0038 3.77625L3.75178 13.3322C3.75178 13.3322 2.62778 14.3442 3.75178 15.0282ZM37.3078 34.9122L35.3478 33.2082C35.2398 33.1162 34.9958 33.0402 34.7958 33.0402L5.60378 33.0842C5.40778 33.0842 5.14778 33.1562 5.02778 33.2442L2.71978 34.9202C2.59978 35.0082 2.50378 35.1682 2.50378 35.2762V36.0242C2.50378 36.1322 2.66378 36.2242 2.86378 36.2242H37.1478C37.3438 36.2242 37.5078 36.1362 37.5078 36.0242V35.2802C37.4998 35.1682 37.4118 35.0042 37.3078 34.9122ZM32.1598 16.3522H35.1518V31.3482H32.1598V16.3522ZM27.2638 16.3522H30.2558V31.3482H27.2638V16.3522ZM10.2078 16.3522H13.1998V31.3482H10.2078V16.3522ZM5.31178 16.3522H8.30378V31.3482H5.31178V16.3522ZM20.0638 31.3282C20.2918 31.3282 20.5198 31.2962 20.7358 31.2322V29.4162C21.6638 29.2082 22.3718 28.8082 22.8598 28.2162C23.3438 27.6282 23.5878 26.9042 23.5878 26.0482C23.5878 25.5362 23.5238 25.1122 23.3998 24.7722C23.2758 24.4322 23.0998 24.1442 22.8758 23.9122C22.6518 23.6762 22.3758 23.4762 22.0518 23.3082C21.7278 23.1402 21.3678 22.9722 20.9718 22.8082L20.0318 22.4162C19.8758 22.3522 19.7198 22.2842 19.5638 22.2122C19.4078 22.1402 19.2678 22.0522 19.1398 21.9522C19.0158 21.8522 18.9158 21.7322 18.8438 21.5842C18.7718 21.4362 18.7358 21.2602 18.7358 21.0522C18.7358 20.8122 18.7838 20.6162 18.8758 20.4642C18.9678 20.3122 19.0878 20.1962 19.2358 20.1122C19.3838 20.0282 19.5478 19.9722 19.7278 19.9482C19.9118 19.9242 20.0918 19.9082 20.2678 19.9082C20.5598 19.9082 20.8198 19.9202 21.0518 19.9482C21.2798 19.9762 21.4878 20.0082 21.6718 20.0482C21.8558 20.0882 22.0278 20.1442 22.1878 20.2042C22.3478 20.2682 22.5078 20.3282 22.6638 20.3922C22.9358 19.8082 23.1038 19.2122 23.1638 18.6082C22.7358 18.4602 22.3278 18.3442 21.9438 18.2562C21.5558 18.1682 21.1558 18.1082 20.7358 18.0762V16.4642C20.4958 16.4002 20.2678 16.3722 20.0478 16.3722C19.8198 16.3722 19.5918 16.4042 19.3758 16.4642V18.1242C18.4358 18.2402 17.6998 18.5682 17.1678 19.1122C16.6358 19.6562 16.3678 20.3962 16.3678 21.3362C16.3678 21.7762 16.4238 22.1442 16.5318 22.4482C16.6398 22.7522 16.7998 23.0162 16.9998 23.2402C17.2038 23.4642 17.4478 23.6562 17.7278 23.8202C18.0078 23.9842 18.3238 24.1362 18.6678 24.2842L19.4998 24.6442C19.6758 24.7282 19.8598 24.8082 20.0478 24.8802C20.2358 24.9522 20.4038 25.0402 20.5558 25.1482C20.7078 25.2522 20.8318 25.3842 20.9318 25.5482C21.0318 25.7082 21.0798 25.9162 21.0798 26.1682C21.0798 26.6682 20.8998 27.0322 20.5398 27.2562C20.1798 27.4802 19.6718 27.5922 19.0118 27.5922C18.5718 27.5922 18.1598 27.5602 17.7758 27.4922C17.3878 27.4242 16.9758 27.3002 16.5398 27.1242C16.4238 27.4602 16.3238 27.7802 16.2438 28.0882C16.1598 28.3962 16.1038 28.7002 16.0718 29.0042C16.3318 29.1082 16.5838 29.1962 16.8238 29.2722C17.0638 29.3442 17.3078 29.4042 17.5518 29.4522C17.7958 29.5002 18.0558 29.5322 18.3278 29.5522C18.5998 29.5722 18.9078 29.5842 19.2518 29.5842H19.3758V31.2442C19.6038 31.2962 19.8358 31.3282 20.0638 31.3282Z"
      fill="#0A459F"></path>
  </symbol>
  <symbol fill="none" xmlns="http://www.w3.org/2000/svg" viewBox="0 0 40 40" id="interven_stat">
    <path
      d="M27.912 20.76C27.912 21.856 28.8 22.74 29.896 22.74C30.984 22.74 31.876 21.852 31.876 20.76C31.876 19.664 30.988 18.78 29.896 18.78C28.804 18.78 27.912 19.664 27.912 20.76ZM26.508 20.124C26.156 20.124 25.884 20.408 25.884 20.76V24.584C25.884 24.936 26.144 25.244 26.492 25.244H31.164C31.516 25.244 31.8 24.944 31.8 24.592C31.804 24.24 31.516 23.94 31.164 23.94H27.34C27.228 23.94 27.124 23.852 27.124 23.736V20.76C27.128 20.408 26.86 20.124 26.508 20.124ZM8.94805 24.992H24.872C25.104 24.992 25.268 24.816 25.268 24.584V21.544C25.268 21.308 25.104 21.088 24.872 21.088H10.6481C9.47205 21.088 8.52805 21.992 8.52805 23.064V24.584C8.52405 24.816 8.71205 24.992 8.94805 24.992ZM23.28 12.168C25.788 13.864 28.328 14.488 28.956 13.56C29.588 12.632 28.068 10.504 25.56 8.804C23.056 7.108 20.516 6.488 19.884 7.412C19.256 8.34 20.776 10.472 23.28 12.168ZM24.788 11.924C24.652 12.128 24.096 11.992 23.552 11.62C23.004 11.252 22.668 10.784 22.808 10.584C22.948 10.384 23.5 10.516 24.044 10.888C24.592 11.256 24.924 11.72 24.788 11.924ZM27.7 12.812C27.56 13.016 27.012 12.88 26.464 12.512C25.916 12.136 25.588 11.676 25.724 11.472C25.86 11.272 26.416 11.404 26.964 11.776C27.508 12.148 27.84 12.612 27.7 12.812ZM23.98 9.052C24.116 8.852 24.672 8.984 25.216 9.356C25.768 9.724 26.092 10.192 25.96 10.392C25.82 10.592 25.268 10.46 24.72 10.092C24.172 9.72 23.844 9.256 23.98 9.052ZM21.048 8.112C21.188 7.912 21.744 8.044 22.288 8.416C22.836 8.784 23.172 9.252 23.032 9.452C22.892 9.652 22.3361 9.52 21.7961 9.148C21.2441 8.78 20.912 8.312 21.048 8.112ZM29.62 12.576C29.964 12.06 29.952 11.384 29.592 10.88C29.096 10.188 28.244 9.184 26.956 8.248L29.032 5.592C29.132 5.464 29.18 5.312 29.18 5.152V0.712C29.18 0.32 28.86 0 28.464 0C28.072 0 27.752 0.316 27.752 0.712V4.904L25.748 7.484C25.748 7.484 24.088 6.344 21.984 5.952C21.52 5.864 21.048 6.048 20.764 6.424L20.752 6.44C20.752 6.44 23.176 6.62 25.884 8.516C28.828 10.6 29.62 12.576 29.62 12.576ZM34.756 25.804H5.24005C5.24005 27.684 6.76405 29.208 8.65205 29.208H18.196C18.196 29.208 18.2 29.212 18.2 29.216V32.976C17.892 32.996 17.6441 33.296 17.6441 33.672V36.112C17.6441 36.488 17.892 36.788 18.2 36.808V39.384C18.2 39.732 18.48 39.996 18.832 39.996H21.16C21.512 39.996 21.7961 39.736 21.7961 39.384V29.212H31.344C33.228 29.208 34.756 27.684 34.756 25.804Z"
      fill="#0A459F"></path>
  </symbol>


  <symbol xmlns="http://www.w3.org/2000/svg" viewBox="0 0 16 16" id="edit">
    <g clip-path="url(#clip0_698:886)">
      <path
        d="M0 15.3663C0.4448 13.8399 0.888 12.3135 1.3328 10.7871C1.368 10.6655 1.4048 10.5439 1.4368 10.4223C1.488 10.2383 1.584 10.0895 1.7312 9.96628C1.8688 9.85268 1.9904 9.71668 2.1168 9.59028C4.2016 7.52468 6.2864 5.45909 8.3696 3.39189C8.4176 3.34389 8.4592 3.28949 8.4928 3.24789C8.776 3.53269 9.0416 3.79989 9.3376 4.09749C9.3056 4.11989 9.2432 4.15189 9.1952 4.19989C7.0352 6.35508 4.8768 8.51028 2.7216 10.6703C2.6448 10.7487 2.5808 10.8559 2.5504 10.9615C2.2912 11.8175 2.0448 12.6783 1.7888 13.5375C1.7568 13.6447 1.7728 13.7119 1.8544 13.7855C1.9872 13.9055 2.104 14.0431 2.2384 14.1615C2.2848 14.2015 2.3728 14.2319 2.4288 14.2175C3.2896 13.9711 4.1488 13.7199 5.0064 13.4607C5.08 13.4383 5.1488 13.3759 5.2064 13.3167C7.3968 11.1327 9.584 8.94548 11.7712 6.75988C11.8128 6.71828 11.848 6.67188 11.872 6.64468C12.1824 6.95508 12.4832 7.25588 12.8128 7.58548C12.7984 7.59508 12.7408 7.61908 12.7008 7.65908C10.544 9.79508 8.384 11.9263 6.2384 14.0735C5.9392 14.3743 5.6144 14.5599 5.2128 14.6735C3.7888 15.0767 2.3712 15.5023 0.9504 15.9199C0.856 15.9471 0.76 15.9727 0.6656 15.9999H0.5376C0.4688 15.9695 0.3984 15.9423 0.3296 15.9103C0.1376 15.8207 0.072 15.6383 0 15.4607V15.3663ZM4.3024 12.7151C4.2608 12.4495 4.216 12.2063 4.1872 11.9631C4.1728 11.8479 4.1264 11.8015 4.0144 11.7807C3.7408 11.7279 3.4704 11.6591 3.2176 11.6031C5.4864 9.32948 7.7552 7.05428 10.0096 4.79349C10.3696 5.15349 10.7456 5.52789 11.1088 5.88949C8.8624 8.14228 6.5952 10.4159 4.3024 12.7151ZM10.8368 1.0255C11.0416 0.825499 11.2464 0.612699 11.4656 0.4143C12.0944 -0.152099 12.9136 -0.139299 13.5264 0.4591C14.2032 1.1183 14.8704 1.7855 15.5296 2.46229C16.1536 3.10069 16.144 3.95509 15.5216 4.59189C15.3344 4.78389 15.1408 4.97109 14.9616 5.14709C13.592 3.77909 12.224 2.41269 10.8368 1.0255ZM9.168 2.53589C9.4784 2.2447 9.7968 1.9455 10.0992 1.6607C11.5328 3.09429 12.9584 4.52149 14.3968 5.95989C14.0976 6.23989 13.776 6.54228 13.4656 6.83348L9.168 2.53589Z"
        fill="#A0A4A8"></path>
    </g>
    <defs>
      <clipPath id="clip0_698:886">
        <rect width="16" height="16" fill="white"></rect>
      </clipPath>
    </defs>
  </symbol>
  <symbol xmlns="http://www.w3.org/2000/svg" viewBox="0 0 16 16" id="del">
    <path
      d="M4.00952 14.3248C4.02552 14.7024 4.33592 15 4.71352 15H11.2911C11.6687 15 11.9807 14.7024 11.9951 14.3248L12.4655 4.408H3.53912L4.00952 14.3248ZM9.48952 6.872C9.48952 6.7136 9.61752 6.5856 9.77592 6.5856H10.2335C10.3919 6.5856 10.5199 6.7152 10.5199 6.872V12.5376C10.5199 12.696 10.3903 12.824 10.2335 12.824H9.77592C9.61752 12.824 9.48952 12.696 9.48952 12.5376V6.872ZM7.48792 6.872C7.48792 6.7136 7.61592 6.5856 7.77432 6.5856H8.23192C8.39032 6.5856 8.51832 6.7152 8.51832 6.872V12.5376C8.51832 12.696 8.39032 12.824 8.23192 12.824H7.77432C7.61592 12.824 7.48792 12.696 7.48792 12.5376V6.872ZM5.48472 6.872C5.48472 6.7136 5.61272 6.5856 5.76952 6.5856H6.22712C6.38552 6.5856 6.51352 6.7152 6.51352 6.872V12.5376C6.51352 12.696 6.38392 12.824 6.22712 12.824H5.76952C5.61112 12.824 5.48472 12.696 5.48472 12.5376V6.872ZM12.7775 1.7216H9.74392V1.1472C9.74392 1.0656 9.67832 1 9.59672 1H6.40952C6.32792 1 6.26232 1.0656 6.26232 1.1472V1.7216H3.22712C2.98392 1.7216 2.78552 1.9184 2.78552 2.1632V3.552H13.2191V2.1632C13.2191 1.92 13.0223 1.7216 12.7775 1.7216V1.7216Z"
      fill="#FF6760"></path>
  </symbol>
</svg>